<?xml version="1.0" standalone="no"?><!DOCTYPE svg PUBLIC "-//W3C//DTD SVG 1.1//EN" "http://www.w3.org/Graphics/SVG/1.1/DTD/svg11.dtd"><svg t="1692236619427" class="icon" viewBox="0 0 1024 1024" version="1.1" xmlns="http://www.w3.org/2000/svg" p-id="11416" xmlns:xlink="http://www.w3.org/1999/xlink" width="200" height="200"><path d="M511.3 64.9c-247.4 0-448 200.6-448 448s200.6 448 448 448 448-200.6 448-448-200.5-448-448-448z m0 806.4c-197.6 0-358.4-160.8-358.4-358.4s160.8-358.4 358.4-358.4 358.4 160.8 358.4 358.4S709 871.3 511.3 871.3z" p-id="11417" fill="#707070"></path><path d="M522.5 423.3c-24.7 0-44.8 20.1-44.8 44.8v224c0 24.7 20.1 44.8 44.8 44.8 24.7 0 44.8-20.1 44.8-44.8v-224c0-24.7-20-44.8-44.8-44.8zM522.5 288.9c-24.7 0-44.8 20.1-44.8 44.8 0 24.7 20.1 44.8 44.8 44.8 24.7 0 44.8-20.1 44.8-44.8 0-24.7-20-44.8-44.8-44.8z" p-id="11418" fill="#707070"></path></svg>